<svg width="40" height="41" viewBox="0 0 40 41" fill="none" xmlns="http://www.w3.org/2000/svg">
<path fill-rule="evenodd" clip-rule="evenodd" d="M11.1739 28.7981C10.6864 28.3107 10.6864 27.5204 11.1739 27.033L27.0604 11.1464C27.5479 10.659 28.3382 10.659 28.8256 11.1464C29.313 11.6339 29.313 12.4241 28.8256 12.9116L12.9391 28.7981C12.4516 29.2856 11.6613 29.2856 11.1739 28.7981Z" fill="#564999"/>
<path fill-rule="evenodd" clip-rule="evenodd" d="M11.1742 11.3961C11.6616 10.9087 12.4519 10.9087 12.9393 11.3961L28.8259 27.2827C29.3133 27.7701 29.3133 28.5604 28.8259 29.0478C28.3385 29.5353 27.5482 29.5353 27.0607 29.0478L11.1742 13.1613C10.6867 12.6738 10.6867 11.8835 11.1742 11.3961Z" fill="#564999"/>
</svg>
