<svg width="48" height="48" viewBox="0 0 48 48" fill="none" xmlns="http://www.w3.org/2000/svg">
<circle cx="24" cy="24" r="24" fill="#222944"/>
<path d="M24.5 13C19.8137 13 16 16.8966 16 21.6873C16 28.4943 23.701 35.5227 24.0287 35.8179C24.1638 35.9396 24.3319 36 24.5 36C24.6681 36 24.8362 35.9396 24.9713 35.8189C25.299 35.5228 33 28.4943 33 21.6873C33 16.8966 29.1863 13 24.5 13ZM24.5 26.4167C21.8962 26.4167 19.7778 24.2671 19.7778 21.625C19.7778 18.9829 21.8962 16.8333 24.5 16.8333C27.1038 16.8333 29.2222 18.9829 29.2222 21.625C29.2222 24.2671 27.1038 26.4167 24.5 26.4167Z" fill="white"/>
</svg>
