<svg width="48" height="48" viewBox="0 0 48 48" fill="none" xmlns="http://www.w3.org/2000/svg">
<circle cx="24" cy="24" r="24" fill="#222944"/>
<path d="M20.658 27.3129C21.5383 28.1917 22.4675 28.9851 23.4455 29.6931C24.4236 30.401 25.4017 30.9625 26.3797 31.3775C27.3578 31.7925 28.2839 32 29.158 32C29.751 32 30.3042 31.8932 30.8177 31.6796C31.3312 31.466 31.7958 31.1303 32.2114 30.6726C32.4559 30.4041 32.6485 30.1142 32.7891 29.8029C32.9297 29.4978 33 29.1896 33 28.8783C33 28.6464 32.9542 28.4267 32.8625 28.2192C32.7708 28.0056 32.6149 27.8225 32.3948 27.6699L29.5798 25.6742C29.3659 25.5277 29.1672 25.4179 28.9838 25.3446C28.8004 25.2714 28.6262 25.2348 28.4612 25.2348C28.2533 25.2348 28.0516 25.2928 27.856 25.4087C27.6604 25.5186 27.4586 25.6773 27.2508 25.8848L26.5998 26.5256C26.5081 26.6232 26.3919 26.6721 26.2513 26.6721C26.178 26.6721 26.1077 26.6598 26.0405 26.6354C25.9793 26.611 25.9274 26.5897 25.8846 26.5714C25.5973 26.4188 25.2305 26.1563 24.7843 25.7841C24.338 25.4057 23.8887 24.9907 23.4364 24.539C22.9901 24.0874 22.5775 23.6388 22.1985 23.1933C21.8195 22.7478 21.5566 22.3847 21.4099 22.1039C21.3855 22.0551 21.361 22.0002 21.3366 21.9391C21.3182 21.872 21.3091 21.8049 21.3091 21.7377C21.3091 21.6035 21.3549 21.4906 21.4466 21.399L22.0976 20.7307C22.2994 20.5232 22.4583 20.3218 22.5744 20.1265C22.6906 19.9313 22.7487 19.7299 22.7487 19.5223C22.7487 19.3576 22.7089 19.1836 22.6294 19.0005C22.5561 18.8174 22.443 18.6191 22.2902 18.4055L20.3188 15.6317C20.1598 15.412 19.9703 15.2533 19.7503 15.1556C19.5302 15.0519 19.2979 15 19.0534 15C18.4238 15 17.8339 15.2655 17.2837 15.7964C16.8375 16.2237 16.5104 16.6966 16.3026 17.2154C16.1009 17.7281 16 18.2773 16 18.8632C16 19.7421 16.2048 20.6667 16.6143 21.637C17.0239 22.6013 17.5802 23.5687 18.2832 24.539C18.9862 25.5094 19.7778 26.434 20.658 27.3129Z" fill="white"/>
</svg>
