<svg width="48" height="48" viewBox="0 0 48 48" fill="none" xmlns="http://www.w3.org/2000/svg">
<circle cx="24" cy="24" r="24" fill="#222944"/>
<path d="M26.6632 24.748L25.1556 26.2607C24.5443 26.8742 23.4687 26.8874 22.8441 26.2607L21.3365 24.748L15.9219 30.1802C16.1234 30.2734 16.3456 30.3291 16.5819 30.3291H31.4178C31.6541 30.3291 31.8762 30.2735 32.0777 30.1803L26.6632 24.748Z" fill="white"/>
<path d="M31.4178 17.6719H16.5818C16.3456 17.6719 16.1234 17.7275 15.9219 17.8207L21.7078 23.6258C21.7082 23.6262 21.7086 23.6263 21.709 23.6266C21.7094 23.627 21.7095 23.6276 21.7095 23.6276L23.5908 25.5151C23.7906 25.7149 24.209 25.7149 24.4089 25.5151L26.2898 23.6279C26.2898 23.6279 26.2903 23.627 26.2906 23.6266C26.2906 23.6266 26.2915 23.6262 26.2919 23.6258L32.0776 17.8207C31.8762 17.7274 31.654 17.6719 31.4178 17.6719Z" fill="white"/>
<path d="M15.1683 18.5586C15.064 18.7695 15 19.0035 15 19.2543V28.7465C15 28.9972 15.0639 29.2313 15.1682 29.4421L20.5922 24.0005L15.1683 18.5586Z" fill="white"/>
<path d="M32.8317 18.5586L27.4077 24.0006L32.8317 29.4423C32.9359 29.2314 32.9999 28.9973 32.9999 28.7465V19.2543C32.9999 19.0035 32.9359 18.7695 32.8317 18.5586Z" fill="white"/>
</svg>
