<svg width="21" height="21" viewBox="0 0 21 21" fill="none" xmlns="http://www.w3.org/2000/svg">
<g clip-path="url(#clip0_300_7187)">
<path d="M8.65413 6.35742C3.90481 6.35742 4.31933e-05 9.62337 4.31933e-05 13.6379C4.31933e-05 15.2427 0.622496 16.8736 1.764 18.1376L0.152047 19.9797C-0.00656032 20.1611 -0.045033 20.4189 0.0553322 20.6388C0.155082 20.8587 0.373778 20.9999 0.615278 20.9999H9.26937C12.776 20.9999 17.3082 17.9803 17.3082 13.6379C17.3082 9.62337 13.4035 6.35742 8.65413 6.35742ZM4.92179 14.7656C4.24348 14.7656 3.69137 14.2135 3.69137 13.5352C3.69137 12.8569 4.24352 12.3048 4.92179 12.3048C5.60007 12.3048 6.15222 12.8569 6.15222 13.5352C6.15226 14.2135 5.60011 14.7656 4.92179 14.7656ZM8.65413 14.7656C7.97582 14.7656 7.42371 14.2135 7.42371 13.5352C7.42371 12.8569 7.97586 12.3048 8.65413 12.3048C9.33241 12.3048 9.88456 12.8569 9.88456 13.5352C9.88456 14.2135 9.33245 14.7656 8.65413 14.7656ZM12.3865 14.7656C11.7082 14.7656 11.156 14.2135 11.156 13.5352C11.156 12.8569 11.7082 12.3048 12.3865 12.3048C13.0647 12.3048 13.6169 12.8569 13.6169 13.5352C13.6169 14.2135 13.0648 14.7656 12.3865 14.7656Z" fill="white"/>
<path d="M20.8512 12.5191L19.4027 10.8291C20.4366 9.66234 20.9996 8.23959 20.9996 6.76766C20.9996 3.0361 17.4116 0.000244141 13.0017 0.000244141C9.01398 0.000244141 5.62604 2.48534 5.02783 5.71987C6.1405 5.34179 7.38832 5.12687 8.65419 5.12687C14.0417 5.12687 18.468 8.88985 18.5327 13.5351H20.3844C20.9099 13.5351 21.1921 12.9163 20.8512 12.5191Z" fill="white"/>
</g>
<defs>
<clipPath id="clip0_300_7187">
<rect width="21" height="21" fill="white"/>
</clipPath>
</defs>
</svg>
