<svg width="40" height="40" viewBox="0 0 40 40" fill="none" xmlns="http://www.w3.org/2000/svg">
<path fill-rule="evenodd" clip-rule="evenodd" d="M3.33301 29.9997C3.33301 29.0792 4.0792 28.333 4.99967 28.333H34.9997C35.9201 28.333 36.6663 29.0792 36.6663 29.9997C36.6663 30.9201 35.9201 31.6663 34.9997 31.6663H4.99967C4.0792 31.6663 3.33301 30.9201 3.33301 29.9997Z" fill="#564999"/>
<path fill-rule="evenodd" clip-rule="evenodd" d="M3.33301 19.9997C3.33301 19.0792 4.0792 18.333 4.99967 18.333H34.9997C35.9201 18.333 36.6663 19.0792 36.6663 19.9997C36.6663 20.9201 35.9201 21.6663 34.9997 21.6663H4.99967C4.0792 21.6663 3.33301 20.9201 3.33301 19.9997Z" fill="#564999"/>
<path fill-rule="evenodd" clip-rule="evenodd" d="M3.33301 9.99967C3.33301 9.0792 4.0792 8.33301 4.99967 8.33301H34.9997C35.9201 8.33301 36.6663 9.0792 36.6663 9.99967C36.6663 10.9201 35.9201 11.6663 34.9997 11.6663H4.99967C4.0792 11.6663 3.33301 10.9201 3.33301 9.99967Z" fill="#564999"/>
</svg>
